<?xml version="1.0" encoding="utf-8"?>
<!-- Generator: Adobe Illustrator 27.2.0, SVG Export Plug-In . SVG Version: 6.00 Build 0)  -->
<svg version="1.1" id="Calque_1" xmlns="http://www.w3.org/2000/svg" xmlns:xlink="http://www.w3.org/1999/xlink" x="0px" y="0px"
	 viewBox="0 0 850.39 850.39" style="enable-background:new 0 0 850.39 850.39;" xml:space="preserve">
<style type="text/css">
	.st0{fill:url(#SVGID_1_);}
	.st1{fill:url(#SVGID_00000014622621937761746300000003020614364369335217_);}
	.st2{fill:none;stroke:#1A171B;stroke-width:0.3551;stroke-miterlimit:10;}
	.st3{fill:#0B5261;stroke:#1A171B;stroke-width:0.3551;stroke-miterlimit:10;}
	.st4{fill:url(#SVGID_00000092436023429055332890000002473330291460013988_);}
	.st5{fill:#FFFFFF;}
	.st6{fill:#FFFFFF;stroke:#FFFFFF;stroke-width:4.2182;stroke-miterlimit:10;}
	.st7{opacity:0.8;fill:#FFFFFF;}
	.st8{opacity:0.5;fill:#FFFFFF;stroke:#FFFFFF;stroke-width:4.2182;stroke-miterlimit:10;}
	.st9{opacity:0.7;fill:#FFFFFF;}
	.st10{opacity:0.5;fill:#FFFFFF;}
	.st11{opacity:0.3;fill:#FFFFFF;}
</style>
<g>
	<linearGradient id="SVGID_1_" gradientUnits="userSpaceOnUse" x1="369.7365" y1="584.7336" x2="791.1462" y2="233.44">
		<stop  offset="0" style="stop-color:#0B5261"/>
		<stop  offset="0.6482" style="stop-color:#008479"/>
		<stop  offset="0.9179" style="stop-color:#E1E8E6"/>
	</linearGradient>
	<path class="st0" d="M834.01,419.83c0-50.23-27.19-94.21-67.6-118.06c-1.91-46.99-27.58-87.95-65.31-111.16
		c0.01-0.59,0.04-1.17,0.04-1.77c0-75.55-61.47-137.02-137.02-137.02c-19.55,0-38.43,4.03-56.13,11.98l-1.92,0.86l3.4,7.58
		l1.92-0.86c16.62-7.47,34.36-11.25,52.73-11.25c69.99,0,127.07,56.15,128.64,125.77c-18.93-9.89-40.43-15.52-63.23-15.52
		c-18.49,0-36.43,3.62-53.34,10.77l-1.94,0.82l3.23,7.66l1.95-0.82c15.87-6.71,32.73-10.11,50.1-10.11
		c22.94,0,44.47,6.06,63.14,16.62c-2.13,42.85-25.33,80.22-59.4,102.02c-2.72-37.22-20.37-71.65-49.45-95.65l-1.63-1.34l-5.29,6.41
		l1.63,1.34c27.06,22.33,43.58,54.29,46.37,88.88c-16.47-8.14-34.84-13.1-54.35-14l-2.1-0.1l-0.38,8.3l2.11,0.1
		c18.23,0.84,35.39,5.46,50.8,13.02c-17.16,8.48-36.45,13.27-56.85,13.27c-2.89,0-5.78-0.09-8.58-0.28l-2.11-0.14l-0.55,8.29
		l2.1,0.14c3,0.2,6.07,0.3,9.13,0.3c13.54,0,26.61-2,38.96-5.68c-18.7,17.64-32.47,40.44-38.96,66.13
		c-3.96-15.78-10.72-30.78-20.12-44.36l-1.2-1.73l-6.83,4.72l1.2,1.74c14.09,20.37,21.9,44.08,22.71,68.84
		c-17.01-10.95-31.52-25.85-41.93-43.9l-1.06-1.83l-7.2,4.15l1.05,1.83c6.78,11.75,15.23,22.22,24.88,31.28
		c-12.36-3.67-25.43-5.68-38.97-5.68c-23.45,0-45.53,5.93-64.85,16.35h-4.71v2.11c0,0.2-0.01,0.39-0.01,0.59
		c-31.06,18.39-54.27,48.67-63.3,84.55c-2.93-11.66-7.35-22.93-13.23-33.44l-1.03-1.84l-7.24,4.07l1.03,1.84
		c8.75,15.6,14.05,32.99,15.72,50.84c-11.54-7.85-21.9-17.63-30.62-29.2l-1.27-1.68l-6.63,5l1.27,1.68
		c4.66,6.19,9.78,11.88,15.26,17.1c-7.55-2.2-15.37-3.8-23.43-4.7l-2.1-0.23l-0.9,8.26l2.1,0.23c15.2,1.68,29.51,5.98,42.55,12.38
		c-17.16,8.48-36.45,13.27-56.85,13.27h-2.11v8.31h2.11c13.53,0,26.6-2,38.95-5.67c-25.59,24.13-41.9,57.96-43,95.57
		c-0.85-0.55-1.7-1.08-2.54-1.65l-1.75-1.18l-4.66,6.88l1.75,1.18c0.64,0.43,1.3,0.84,1.95,1.27c-0.03,0.02-0.06,0.03-0.09,0.05
		l-1.88,0.95l3.75,7.42l1.88-0.95c0.62-0.31,1.2-0.67,1.81-0.99c2.86,44.31,26.85,82.93,62,105.88c-0.82,0.42-1.6,0.88-2.43,1.28
		l-1.9,0.91l3.6,7.49l1.9-0.92c2.43-1.17,4.81-2.42,7.15-3.73c19.68,10.95,42.31,17.21,66.38,17.21c24.09,0,46.74-6.27,66.44-17.24
		c19.69,10.97,42.34,17.24,66.43,17.24c74.08,0,134.57-59.1,136.91-132.62c39.27-24.12,65.52-67.47,65.52-116.84
		c0-0.19-0.01-0.38-0.01-0.57C806.88,513.95,834.01,470.01,834.01,419.83z M758.24,307.41c0,44.55-22.75,83.87-57.24,106.98
		c-1.78-45.78-25.89-85.88-62-109.42c17.44-8.84,37.13-13.85,57.98-13.85c22.15,0,43.02,5.63,61.24,15.52
		C758.23,306.9,758.24,307.15,758.24,307.41z M431.26,617.31c-6.39-25.5-19.91-48.25-38.46-65.89c12.3,3.56,25.21,5.43,38.45,5.43
		c13.53,0,26.6-2,38.96-5.67C451.5,568.82,437.74,591.62,431.26,617.31z M564.12,513.8c-13.53,0-26.6,2-38.96,5.67
		c18.71-17.64,32.48-40.46,38.96-66.16c6.48,25.7,20.25,48.52,38.96,66.16C590.72,515.8,577.65,513.8,564.12,513.8z M492.36,544.01
		c-1.82,42.1-23.94,79.03-56.82,101.18C437.36,603.1,459.49,566.17,492.36,544.01z M559.86,646.54
		c-34.36-22.21-57.5-60.32-58.94-103.86C535.28,564.89,558.42,603,559.86,646.54z M507.37,535.33
		c17.13-8.45,36.39-13.22,56.75-13.22c20.36,0,39.62,4.77,56.75,13.22c-17.13,8.45-36.39,13.22-56.75,13.22
		C543.76,548.55,524.5,543.78,507.37,535.33z M568.85,431.89c30.95,21.05,52.28,55.22,55.94,94.45
		C593.84,505.29,572.52,471.12,568.85,431.89z M629.53,409.68c20.36,0,39.62,4.77,56.75,13.22c-17.13,8.45-36.39,13.22-56.75,13.22
		c-19.95,0-39.31-4.68-56.71-13.24C589.94,414.44,609.19,409.68,629.53,409.68z M501.29,527.74c3.35-40.72,25.72-76.1,58.2-97.26
		C556.13,471.2,533.77,506.59,501.29,527.74z M491.86,526.3c-30.93-21.06-52.24-55.24-55.88-94.47
		C467.71,453.39,488.23,488.24,491.86,526.3z M487.99,535.33c-17.13,8.45-36.39,13.22-56.75,13.22c-20.16,0-39.51-4.59-56.89-13.15
		c17.17-8.5,36.48-13.3,56.89-13.3C451.61,522.11,470.86,526.88,487.99,535.33z M426.99,646.54
		c-34.42-22.25-57.58-60.45-58.95-104.07C402.68,564.74,425.58,603.08,426.99,646.54z M496.66,571.87
		c8.53,33.85,29.69,62.7,58.16,81.3c-17.48,8.89-37.23,13.94-58.15,13.94c-20.92,0-40.67-5.05-58.15-13.94
		C466.96,634.57,488.13,605.72,496.66,571.87z M525.16,551.19c12.36,3.67,25.42,5.67,38.95,5.67c21.97,0,42.73-5.23,61.16-14.46
		c-1.32,42.89-23.69,80.56-57.14,102.98C566.68,608.33,550.44,575.02,525.16,551.19z M590.43,438.62
		c12.54,3.76,25.69,5.81,39.1,5.81c22.68,0,44.08-5.57,62.94-15.37c-2.97,41.69-25.86,77.93-59.2,99.25
		C630.69,493.05,614.73,461.47,590.43,438.62z M692.76,416.89c-18.93-9.89-40.43-15.52-63.23-15.52c-13.53,0-26.6,2-38.96,5.68
		c25.61-24.16,41.93-58.03,43.01-95.68C668.56,333.77,691.77,372.61,692.76,416.89z M496.61,505.11
		c-6.39-25.34-19.95-48.43-38.97-66.41c12.61,3.74,25.75,5.73,39.02,5.73c13.53,0,26.6-2,38.96-5.67
		C516.86,456.44,503.07,479.33,496.61,505.11z M470.2,519.47c-12.36-3.67-25.42-5.67-38.96-5.67c-13.53,0-26.6,2-38.95,5.67
		c18.71-17.64,32.48-40.46,38.95-66.16C437.73,479.01,451.5,501.83,470.2,519.47z M363.78,571.83
		c8.52,33.86,29.69,62.74,58.17,81.34c-17.48,8.89-37.23,13.94-58.15,13.94c-20.41,0-40.25-4.78-58.19-13.89
		C334.9,634.21,355.47,605.17,363.78,571.83z M435.85,661.14c18.34,9.12,38.98,14.28,60.81,14.28c22.68,0,44.08-5.57,62.94-15.37
		c-3.05,42.82-27.1,79.91-61.92,100.98C463.16,740.14,439.23,703.49,435.85,661.14z M571.37,653.17
		c36.39-23.77,60.81-64.34,62.2-110.62c35.5,22.85,59.1,62.63,59.25,107.86c-18.71,10.61-40.3,16.7-63.29,16.7
		C608.61,667.11,588.86,662.06,571.37,653.17z M696.99,548.55c-20.92,0-40.67-5.05-58.15-13.94c34.49-22.53,58.24-60.16,61.8-103.44
		c33.31,22.16,55.74,59.41,57.47,101.91C739.91,542.94,719.09,548.55,696.99,548.55z M696.99,282.81c-13.53,0-26.6,2-38.96,5.68
		c23.93-22.57,39.75-53.62,42.61-88.31c31.99,21.29,53.94,56.49,57.16,96.91C739.46,287.97,718.82,282.81,696.99,282.81z
		 M568.41,414.21c1.82-42.1,23.94-79.03,56.82-101.18C623.41,355.13,601.29,392.05,568.41,414.21z M496.66,436.12
		c-19.74,0-39.21-4.55-56.79-13.2c17.14-8.47,36.42-13.24,56.79-13.24c20.36,0,39.62,4.77,56.75,13.22
		C536.28,431.35,517.02,436.12,496.66,436.12z M426.62,430.49c-3.35,40.72-25.72,76.1-58.2,97.25
		C371.77,487.03,394.14,451.64,426.62,430.49z M302.67,645.23c1.81-42.09,23.91-79.01,56.77-101.18
		C357.66,585.27,336.59,622.51,302.67,645.23z M363.79,675.42c22.7,0,44.1-5.58,62.97-15.39c-3.03,41.54-26.4,79.45-61.97,100.98
		c-34.49-20.88-58.41-57.5-61.8-99.82C321.79,670.53,342.5,675.42,363.79,675.42z M431.22,684.17c8.51,33.9,29.69,62.81,58.18,81.42
		c-17.48,8.89-37.23,13.94-58.16,13.94c-20.9,0-40.63-5.04-58.1-13.92C402.05,746.7,422.79,717.37,431.22,684.17z M567.88,660.7
		c18.55,9.39,39.48,14.71,61.65,14.71c22.68,0,44.08-5.57,62.94-15.37c-4.75,66.68-60.48,119.49-128.35,119.49
		c-20.92,0-40.67-5.05-58.16-13.94C540.84,742.81,564.73,704.59,567.88,660.7z M658.03,551.19c12.36,3.67,25.42,5.67,38.95,5.67
		c21.97,0,42.73-5.23,61.16-14.46c-1.32,42.89-23.69,80.56-57.14,102.98C699.55,608.33,683.31,575.02,658.03,551.19z M703.12,422.9
		c37.01-23.66,61.93-64.59,63.33-111.34c35.61,22.92,59.26,62.88,59.26,108.28c0,45.53-23.78,85.59-59.56,108.48
		C762.9,484.04,738.55,445.56,703.12,422.9z"/>
	
		<linearGradient id="SVGID_00000083785298447304733770000013411541247682542505_" gradientUnits="userSpaceOnUse" x1="633.4327" y1="-315.5878" x2="632.9604" y2="-313.8209" gradientTransform="matrix(0.9504 -0.2999 0.2952 0.9354 61.9161 770.2757)">
		<stop  offset="8.847922e-04" style="stop-color:#00484D"/>
		<stop  offset="0.6522" style="stop-color:#0D9B9A"/>
		<stop  offset="0.9099" style="stop-color:#0D9B9A"/>
	</linearGradient>
	<path style="fill:url(#SVGID_00000083785298447304733770000013411541247682542505_);" d="M570.37,287.11
		c0.28-0.83,0.55-1.66,0.82-2.5"/>
	<circle class="st2" cx="432.87" cy="657.21" r="51.85"/>
	<circle class="st3" cx="432.87" cy="657.21" r="51.85"/>
	
		<linearGradient id="SVGID_00000057131287944922164200000017110215559749403819_" gradientUnits="userSpaceOnUse" x1="653.2665" y1="-619.7425" x2="150.6591" y2="48.3386" gradientTransform="matrix(0.9504 -0.2999 0.2952 0.9354 61.9161 770.2757)">
		<stop  offset="0" style="stop-color:#0B5261"/>
		<stop  offset="0.6482" style="stop-color:#008479"/>
		<stop  offset="0.9179" style="stop-color:#E1E8E6"/>
	</linearGradient>
	<path style="fill:url(#SVGID_00000057131287944922164200000017110215559749403819_);" d="M571.19,284.62
		c12.54-38.94,13.57-81.82,0.4-123.58C537.39,52.66,420.35-7.06,310.24,27.69C89.96,97.2-33.12,329.31,35.29,546.1
		c68.42,216.82,302.42,336.21,522.7,266.7c-110.14,34.76-227.14-24.94-261.35-133.35C262.44,571.07,323.97,455,434.11,420.25
		c66.8-21.08,115.73-72.07,136.26-133.13"/>
	<g>
		<g>
			<path class="st5" d="M570.07,289.15l0.07-0.27c0.04-0.16,0.11-0.3,0.16-0.46l0.05-1.25l0.04-0.04l0.08-2.07
				c-2.11-0.08-4.22-0.13-6.37-0.13c-17,0-33.28,3.16-48.3,8.94c-5.23,2.02-10.33,4.34-15.23,7c-0.59,0.3-1.18,0.59-1.73,0.93
				c-0.13,0.04-0.21,0.08-0.29,0.17c-0.3,0.17-0.59,0.29-0.84,0.46c-0.38,0.21-0.76,0.42-1.14,0.63v0.04
				c-0.63,0.34-1.27,0.72-1.9,1.1c-0.04,0.04-0.13,0.08-0.17,0.13c-0.3,0.13-0.55,0.34-0.84,0.51c-4.94,2.99-9.62,6.33-14.09,9.95
				c-24.89,20.04-42.52,48.76-48.3,81.5v0.08c-1.35,7.51-2.07,15.23-2.07,23.12v0.34h4.09v-0.29
				c0.08-46.53,24.59-87.44,61.38-110.52c0.63-0.46,1.31-0.84,1.98-1.27c0.34-0.21,0.72-0.42,1.05-0.59
				c0.25-0.21,0.55-0.34,0.84-0.51c0.04-0.04,0.08-0.08,0.17-0.08v-0.04c0.63-0.38,1.31-0.76,1.98-1.1
				c0.34-0.21,0.72-0.42,1.05-0.59c0.3-0.17,0.63-0.34,0.93-0.51h0.04c18.31-9.83,39.23-15.35,61.38-15.35
				c1.81,0,3.58,0.08,5.36,0.13C569.65,289.11,569.86,289.13,570.07,289.15z"/>
			<path class="st5" d="M571.03,287.07c0.4-1.23,0.93-2.37,1.6-3.44l0.04-0.59l-2.11-0.08c-2.14-0.08-4.27-0.13-6.45-0.13
				c-16.89,0-33.39,3.06-49.06,9.09c-5.48,2.12-10.68,4.51-15.49,7.12c-0.55,0.28-1.1,0.56-1.62,0.86c-0.26,0.1-0.53,0.24-0.69,0.39
				c-0.25,0.13-0.48,0.25-0.55,0.31l-2.22,1.28v0.01c-0.32,0.19-0.65,0.39-1.03,0.62l-0.02,0.02c-0.2,0.11-0.39,0.22-0.58,0.35
				l-0.27,0.17c-4.86,2.95-9.68,6.36-14.32,10.12c-25.89,20.84-43.31,50.24-49.05,82.77l-0.03,0.26
				c-1.37,7.68-2.07,15.52-2.07,23.31v2.45h6.2l2.1-0.3l0.01-2.11c0.08-44.42,22.65-85.06,60.51-108.82
				c0.41-0.31,0.85-0.57,1.29-0.83l0.57-0.35c0.28-0.17,0.59-0.35,0.87-0.49l0.46-0.24l1.72-0.17v-0.89
				c0.3-0.17,0.63-0.34,0.99-0.53c0.28-0.18,0.6-0.35,0.98-0.55l0.93-0.48c18.41-9.88,39.29-15.1,60.38-15.1
				c1.19,0,2.37,0.04,3.53,0.07l2.28,0.08C570.02,289.79,570.38,288.39,571.03,287.07z"/>
		</g>
	</g>
	<g>
		<g>
			<path class="st5" d="M515.93,314.85c-4.51-3.67-9.24-7-14.17-10c-0.25-0.17-0.55-0.34-0.8-0.51h-0.04
				c-0.08-0.08-0.17-0.13-0.21-0.13c-0.63-0.42-1.27-0.76-1.9-1.14c-0.38-0.21-0.72-0.42-1.1-0.63c-0.3-0.17-0.55-0.3-0.84-0.46
				c-0.08-0.08-0.21-0.13-0.34-0.17c-0.55-0.34-1.14-0.63-1.73-0.93c-4.89-2.66-9.95-4.98-15.14-6.96c0,0,0,0-0.04,0
				c-15.27-5.86-31.59-8.98-48.38-8.98c-17,0-33.28,3.16-48.3,8.94c-5.27,2.02-10.33,4.34-15.27,7c-0.59,0.3-1.14,0.59-1.69,0.93
				c-0.13,0.04-0.25,0.13-0.34,0.21c-0.3,0.13-0.55,0.25-0.8,0.42c-0.42,0.21-0.8,0.46-1.18,0.67c-0.63,0.38-1.27,0.72-1.86,1.1
				c-0.04,0.04-0.13,0.08-0.17,0.13c-0.3,0.13-0.55,0.34-0.84,0.51c-4.94,2.99-9.62,6.33-14.09,9.95
				c-24.89,20.04-42.56,48.8-48.3,81.58c0,0.04,0,0.04,0,0.08c-1.27,7.04-1.98,14.3-2.07,21.68v2.28c0,0.38,0,0.8,0.04,1.18
				c-0.04,0.08-0.04,0.13,0,0.21c-0.04,0.42,0,0.8,0.04,1.22c-0.04,0.72,0,1.48,0.04,2.19c0,0.34,0,0.68,0.04,1.01v0.13
				c0.25,5.69,0.89,11.26,1.9,16.79v0.04c3.54,20.88,12.06,40.54,25.06,57.75l2.77-2.08c0.14-0.16,0.27-0.32,0.41-0.47
				c-15.56-20.69-24.44-44.95-25.95-70.64c-0.08-0.76-0.08-1.56-0.13-2.32c-0.04-0.46-0.04-0.89-0.04-1.31v-0.21
				c-0.04-0.38-0.04-0.67,0-1.05v-0.04c-0.08-0.72-0.08-1.43-0.08-2.15v-1.35c0.17-46.44,24.68-87.23,61.38-110.31
				c0.63-0.46,1.31-0.84,1.98-1.27c0.34-0.21,0.72-0.42,1.05-0.59c0.25-0.21,0.55-0.34,0.84-0.51c0.04-0.04,0.08-0.08,0.17-0.08
				c0.63-0.42,1.31-0.8,1.98-1.14c0.34-0.21,0.67-0.38,1.01-0.59c0.34-0.17,0.67-0.34,1.01-0.55c18.31-9.79,39.23-15.31,61.38-15.31
				c21.72,0,42.77,5.4,61.42,15.31c0.34,0.17,0.67,0.38,1.01,0.55c0.34,0.17,0.68,0.38,1.01,0.55c0.67,0.38,1.35,0.76,1.98,1.14
				c0.08,0.04,0.17,0.08,0.25,0.13c0.3,0.17,0.55,0.34,0.8,0.51c0.34,0.17,0.67,0.38,1.01,0.55c0.67,0.42,1.31,0.84,1.98,1.27
				c14.89,9.32,27.92,21.64,38.22,36.49l3.03-2.11c0.08-0.1,0.16-0.2,0.24-0.29C534.74,332.3,525.86,322.84,515.93,314.85z"/>
			<path class="st5" d="M517.26,313.21c-4.56-3.71-9.41-7.13-14.33-10.12l-1.35-0.99h-0.26c-0.27-0.17-0.55-0.32-0.82-0.48
				l-2.46-1.4c-0.22-0.16-0.43-0.26-0.6-0.32c-0.52-0.3-1.07-0.58-1.64-0.86c-4.92-2.67-10.1-5.06-15.39-7.08l-0.4-0.14
				c-15.66-5.96-32.07-8.99-48.78-8.99c-16.89,0-33.39,3.06-49.05,9.08c-5.39,2.07-10.47,4.4-15.47,7.09
				c-0.59,0.3-1.15,0.59-1.7,0.93c-0.17,0.08-0.32,0.17-0.48,0.28c-0.3,0.14-0.53,0.26-0.63,0.35c-0.32,0.15-0.61,0.33-0.89,0.5
				l-1.13,0.66c-0.42,0.24-0.83,0.47-1.22,0.73l-0.2,0.13c-0.17,0.09-0.34,0.2-0.51,0.31l-0.26,0.16
				c-4.86,2.95-9.68,6.36-14.32,10.12c-25.93,20.88-43.35,50.3-49.05,82.86l-0.03,0.26c-1.29,7.21-1.98,14.56-2.07,21.88v2.28
				c0,0.27,0,0.56,0.02,0.85l-0.22,0.54l0.23,0.47c0.01,0.29,0.03,0.56,0.05,0.81c-0.03,0.71,0.01,1.45,0.05,2.14
				c0,0.43,0.01,0.86,0.05,1.23c0.25,5.66,0.89,11.33,1.89,16.89l0.03,0.2c3.62,21.36,12.19,41.09,25.45,58.66l1.06,1.41
				c0.15-0.19,0.3-0.38,0.45-0.58c0.44-0.57,0.85-1.16,1.18-1.8c0.99-1.68,2.24-3.1,3.74-4.28c-15.14-20.19-23.93-44.15-25.43-69.43
				c-0.05-0.45-0.06-0.92-0.08-1.38l-0.04-0.89c-0.04-0.4-0.03-0.76-0.03-1.12l-0.01-0.44c-0.02-0.23-0.02-0.37,0-0.59v-0.52
				c-0.08-0.63-0.07-1.27-0.07-1.9v-1.34c0.16-44.28,22.73-84.85,60.51-108.62c0.41-0.3,0.84-0.56,1.28-0.82l0.59-0.36
				c0.28-0.17,0.59-0.35,0.86-0.48l1.24-0.72c0.56-0.37,1.16-0.71,1.94-1.1l0.84-0.5c0.4-0.2,0.79-0.4,1.06-0.57
				c18.44-9.86,39.32-15.06,60.38-15.06c20.99,0,41.89,5.21,60.46,15.08l0.41,0.23c0.2,0.11,0.41,0.23,0.62,0.33l0.41,0.22
				c0.2,0.11,0.4,0.23,0.51,0.28c0.65,0.37,1.31,0.74,1.93,1.11l0.29,0.15c0.24,0.14,0.45,0.28,0.91,0.56l0.42,0.23
				c0.2,0.11,0.4,0.22,0.42,0.22l1.98,1.27c14.91,9.33,27.56,21.41,37.6,35.9l0.74,1.07c0.53-0.82,1.16-1.58,1.91-2.27
				c0.4-0.39,0.83-0.73,1.25-1.08c0.49-0.69,1.03-1.36,1.64-1.98c0.34-0.26,0.67-0.52,1.01-0.78
				C536.32,330.95,527.42,321.38,517.26,313.21z"/>
		</g>
	</g>
	<g>
		<g>
			<path class="st5" d="M578.54,186.69l-1.53-3.58c-3.71,1.56-7.34,3.29-10.84,5.19c-1.05,0.51-2.07,1.1-3.12,1.69
				c-0.34,0.17-0.68,0.38-1.01,0.59c-1.05,0.55-2.07,1.18-3.08,1.81c-31.47,19.28-53.53,50.53-61.29,86.39v0.04
				c-0.89,4.01-1.56,8.06-2.02,12.19v0.04c-0.38,2.87-0.63,5.78-0.76,8.73c-0.04,0.34-0.08,0.72-0.08,1.1
				c-0.04,0.76-0.08,1.52-0.08,2.32c-0.04,0.34-0.04,0.68-0.04,1.01v0.25c0,0.29-0.04,0.59,0,0.93c-0.04,0.67-0.04,1.35-0.04,2.02
				v0.46c0,0.38,0,0.76,0.04,1.14c0.04,4.94,0.38,9.91,0.97,14.81v0.08c0.51,4.05,1.18,8.14,2.07,12.15
				c2.91,13.54,7.93,26.57,14.89,38.64l3.5-2.02c-8.65-15.02-14.21-31.68-16.32-48.85v-0.13c-0.72-5.31-1.05-10.63-1.05-15.99v-1.18
				c0-0.3,0-0.63,0.04-0.93c0-0.84,0-1.69,0.04-2.53v-0.93c0.04-0.08,0.04-0.21,0.04-0.34c0-0.34,0.04-0.72,0.04-1.05
				c0.17-3.21,0.42-6.45,0.84-9.62v-0.04c4.94-39.82,27.88-75.04,62.18-95.71c0.38-0.25,0.76-0.46,1.18-0.67
				c0.97-0.59,1.98-1.18,2.99-1.73v-0.04c0.34-0.17,0.67-0.34,1.05-0.55c3.69-2.01,7.47-3.82,11.41-5.5
				C578.55,186.83,578.55,186.76,578.54,186.69z"/>
			<path class="st5" d="M578.45,185.34c-0.66-1.43-1.12-2.95-1.35-4.55l-0.9,0.38c-3.82,1.61-7.53,3.38-10.94,5.23
				c-0.91,0.44-1.8,0.94-2.7,1.45l-0.45,0.26c-0.39,0.2-0.79,0.44-1.04,0.6c-1.09,0.57-2.14,1.22-3.21,1.89
				c-31.7,19.42-54.39,51.4-62.25,87.74l-0.04,0.24c-0.88,4.02-1.56,8.12-2.01,12.2c-0.39,2.91-0.65,5.91-0.76,8.75
				c-0.05,0.42-0.11,0.89-0.11,1.5c-0.04,0.71-0.08,1.42-0.06,1.93c-0.05,0.42-0.05,0.84-0.05,1.25l-0.01,0.44
				c-0.01,0.25-0.02,0.51,0,0.78c-0.04,0.66-0.04,1.32-0.04,1.98v0.47c0,0.46,0.01,0.92,0.05,1.16c0.04,4.89,0.37,9.95,0.97,14.79
				l0.02,0.35c0.54,4.33,1.25,8.48,2.1,12.33c2.97,13.78,8.05,26.99,15.12,39.25l0.5,0.87c0.04-0.04,0.07-0.09,0.12-0.14
				c0.74-0.72,1.59-1.31,2.4-1.94c0.77-0.59,1.53-1.27,2.39-1.74c0.04-0.02,0.09-0.04,0.14-0.07c0.4-0.58,0.84-1.12,1.33-1.64
				c-8.28-14.54-13.74-30.95-15.76-47.27l-0.02-0.41c-0.69-5.1-1.04-10.39-1.04-15.71v-1.18c0-0.19-0.01-0.41,0.02-0.61l0.03-0.32
				c0-0.81,0-1.62,0.04-2.53v-0.68c0.04-0.24,0.04-0.44,0.04-0.58l0.02-0.39c0.01-0.23,0.03-0.45,0.02-0.55
				c0.19-3.61,0.46-6.7,0.83-9.51c4.88-39.35,27.17-73.67,61.25-94.21c0.3-0.2,0.61-0.38,1.11-0.63c0.94-0.57,1.92-1.14,2.9-1.68
				l0.58-0.33c0.16-0.08,0.32-0.17,0.48-0.26c3.39-1.85,6.93-3.55,10.77-5.2C578.62,187.84,578.46,186.61,578.45,185.34z"/>
		</g>
	</g>
	<g>
		<g>
			<path class="st5" d="M430.56,421.14c-6.03-3.46-12.32-6.41-18.77-8.9h-0.04c-15.23-5.78-31.51-8.77-47.96-8.77
				c-15.57,0-30.58,2.66-44.5,7.55l-0.04,0.04c-6.07,2.11-11.94,4.64-17.55,7.59c-0.04,0.04-0.13,0.08-0.17,0.08
				c-0.04,0.04-0.08,0.08-0.13,0.08c-0.34,0.17-0.63,0.34-0.97,0.51c-0.38,0.21-0.8,0.42-1.18,0.63c-0.63,0.34-1.27,0.67-1.86,1.05
				c-0.34,0.17-0.68,0.38-1.01,0.59c-0.04,0-0.08,0.04-0.08,0.04c-0.38,0.17-0.72,0.38-1.1,0.63c-0.63,0.38-1.31,0.76-1.94,1.14
				c-0.13,0.08-0.3,0.17-0.42,0.3c-0.04,0-0.04,0.04-0.08,0.04c-5.32,3.29-10.38,6.96-15.19,10.97h-0.04
				c-27.88,23.24-46.23,57.49-48.43,96.01c-0.04,1.14-0.13,2.28-0.13,3.46c-0.04,0.38-0.04,0.8-0.04,1.22
				c-0.04,0.97-0.04,1.98-0.04,2.99v0.46c0.17,44.67,22.36,86.26,59.43,111.36l0.95-1.41c-0.04-0.28-0.08-0.57-0.1-0.85
				c-0.03-0.32-0.03-0.64-0.03-0.97c0-0.39,0.05-0.77,0.08-1.15c-35.22-24.52-56.24-64.53-56.24-107.45v-0.63
				c0-0.38,0-0.8,0.04-1.18c0-1.14,0-2.28,0.08-3.42c0-0.46,0-0.93,0.04-1.43c2.19-44.04,26.28-82.38,61.54-104.4
				c0.04,0,0.04-0.04,0.08-0.04c0.46-0.29,0.93-0.59,1.39-0.84c0.13-0.08,0.21-0.17,0.34-0.21c0.29-0.21,0.55-0.34,0.84-0.51
				c0.59-0.38,1.22-0.72,1.86-1.1c0.38-0.21,0.76-0.42,1.14-0.63c0.04-0.04,0.08-0.08,0.17-0.08c0.29-0.17,0.63-0.38,0.93-0.51
				c0.67-0.38,1.31-0.72,1.98-1.1h0.04c0.17-0.08,0.34-0.17,0.51-0.25c0.04-0.04,0.13-0.08,0.17-0.13h0.04
				c0.04,0,0.08-0.04,0.08-0.04c17.89-9.15,38.09-14.34,59.52-14.34c21.89,0,43.45,5.48,62.51,15.9c1.1,0.59,2.15,1.18,3.25,1.81
				l0.34-0.59l1.73-2.95C431.27,421.52,430.89,421.31,430.56,421.14z"/>
			<path class="st5" d="M432.73,419.95c-0.39-0.25-0.84-0.5-1.12-0.63c-5.96-3.42-12.37-6.46-19.06-9.04l-0.42-0.14
				c-15.47-5.82-31.74-8.78-48.34-8.78c-15.52,0-30.72,2.58-45.2,7.67l-0.48,0.2c-5.93,2.08-11.68,4.58-17.11,7.41l-0.35,0
				l-0.42,0.42l-1.97,1.04c-0.69,0.37-1.37,0.74-1.8,1.03c-0.23,0.11-0.46,0.25-0.72,0.4l-0.32,0.01l-0.37,0.37
				c-0.34,0.18-0.65,0.37-0.94,0.57l-1.95,1.15l-0.25,0.01l-0.43,0.43c-5.05,3.13-9.98,6.69-14.68,10.56l-0.63,0.49
				c-29.11,24.26-47.03,59.8-49.18,97.55l-0.05,1.1c-0.04,0.8-0.08,1.61-0.06,2.21c-0.05,0.45-0.06,0.95-0.05,1.37
				c-0.04,1-0.05,2.04-0.05,3.09v0.47c0.17,45.35,22.74,87.63,60.36,113.1l1.75,1.18l0.81-1.2c-0.09-0.62-0.17-1.27-0.24-1.79
				c-0.09-0.66-0.23-1.46-0.29-2.2c-0.03-0.32-0.03-0.64-0.03-0.97c0-0.54,0.04-1.06,0.1-1.58c-0.13-0.77-0.21-1.55-0.23-2.34
				c-33.8-24.21-53.92-63.06-53.92-104.68v-0.63c0-0.31-0.01-0.64,0.04-1.18c0-1.09,0-2.18,0.08-3.42c0-0.41,0-0.81,0.04-1.33
				c2.08-41.76,24.52-80,60.07-102.41l0.29-0.01l0.44-0.44c0.38-0.24,0.75-0.47,1.13-0.68l0.56-0.35c0.16-0.11,0.3-0.19,0.45-0.27
				l0.32-0.18c0.34-0.22,0.69-0.42,1.05-0.63l2.23-1.25c0.17-0.1,0.34-0.21,0.69-0.37l1.93-1.06l0.74-0.19l0.38-0.38
				c18.21-9.26,37.81-13.96,58.26-13.96c21.5,0,42.77,5.41,61.51,15.65c1.08,0.58,2.12,1.16,3.2,1.79l1.83,1.05l4.14-7.13
				L432.73,419.95z"/>
			<path class="st5" d="M301.06,425.96l-0.55,0.08C300.71,426.04,300.9,426.01,301.06,425.96z"/>
			<path class="st5" d="M301.52,416.63c-0.02,0-0.03,0-0.05,0L301.52,416.63z"/>
		</g>
	</g>
	<g>
		<g>
			<path class="st5" d="M313.59,431.77h-0.04c-3.84-3-7.8-5.74-11.94-8.27c-0.04-0.04-0.13-0.08-0.17-0.08
				c-0.3-0.21-0.63-0.42-0.93-0.55v-0.04c-0.04-0.04-0.08-0.04-0.13-0.04c-0.93-0.59-1.86-1.1-2.78-1.65
				c-0.08-0.04-0.13-0.08-0.21-0.13c-0.34-0.21-0.72-0.42-1.05-0.59c-4.22-2.36-8.56-4.47-12.99-6.33
				c-16.32-6.92-34.13-10.63-52.43-10.63c-22.86,0-44.46,5.74-63.36,15.86c-0.38,0.21-0.8,0.42-1.18,0.63
				c-0.97,0.51-1.94,1.05-2.87,1.65c-0.42,0.21-0.8,0.42-1.18,0.67c-37.58,22.27-63.48,62.3-66.1,108.45
				c-0.08,1.56-0.13,3.08-0.17,4.68c-0.04,0.97-0.04,1.98-0.04,2.99c0,74.37,60.53,134.9,134.9,134.9
				c21.39,0,41.81-4.88,60.76-14.42c-0.03-0.1-0.08-0.19-0.11-0.29c-0.06-0.21-0.13-0.4-0.21-0.6l-1.43-2.83
				c-18.39,9.32-38.22,14.05-59.01,14.05c-72.13,0-130.81-58.68-130.81-130.81v-0.63c0-1.52,0.04-3.08,0.13-4.6
				c1.77-45.39,26.74-84.87,63.4-106.93c0.89-0.55,1.77-1.1,2.7-1.6c0.42-0.25,0.84-0.51,1.31-0.72c0.97-0.55,1.94-1.1,2.91-1.6
				h0.04c18.05-9.45,38.6-14.76,60.32-14.76c22.15,0,43.53,5.61,62.35,15.86c0.04,0,0.04,0.04,0.04,0.04s0,0,0.04,0
				c0.97,0.51,1.94,1.05,2.87,1.6c0.08,0.04,0.17,0.08,0.25,0.17c0.3,0.13,0.59,0.3,0.89,0.51c0.04,0,0.13,0.04,0.17,0.08
				c0.93,0.55,1.81,1.1,2.7,1.65c0.17,0.08,0.3,0.17,0.46,0.3c18.18,11.47,33.58,27.38,44.46,46.78l2.19-1.21
				c0.01-0.01,0.02-0.02,0.03-0.03c0.4-0.34,0.83-0.63,1.24-0.96C339.58,456.37,327.61,442.65,313.59,431.77z"/>
			<path class="st5" d="M314.88,430.11l-0.61-0.44c-3.64-2.81-7.48-5.45-11.42-7.87l-0.54-0.48h-0.24
				c-0.09-0.05-0.18-0.11-0.27-0.16l-0.54-0.48h-0.27c-0.46-0.28-0.92-0.54-1.38-0.81l-1.1-0.65c-0.39-0.24-0.83-0.49-1.14-0.64
				c-4.24-2.37-8.68-4.54-13.2-6.43c-16.9-7.16-34.82-10.8-53.26-10.8c-22.43,0-44.68,5.57-64.37,16.12l-1.14,0.61
				c-1.03,0.53-2.05,1.11-2.84,1.63c-0.5,0.25-0.96,0.5-1.31,0.75c-39.45,23.38-64.55,64.55-67.13,110.15
				c-0.08,1.58-0.13,3.12-0.17,4.7c-0.05,1-0.05,2.05-0.05,3.1c0,75.54,61.46,137.01,137.01,137.01c21.58,0,42.27-4.9,61.5-14.55
				c-0.34-0.73-0.65-1.46-0.85-2.27c-0.08-0.28-0.18-0.55-0.29-0.82c-0.13-0.35-0.29-0.69-0.39-1.05c-0.22-0.8-0.35-1.6-0.43-2.4
				c-0.12-0.54-0.22-1.09-0.29-1.64l-1.19,0.6c-18.09,9.17-37.62,13.82-58.06,13.82c-70.96,0-128.69-57.73-128.69-128.69v-0.63
				c0-1.48,0.04-3,0.12-4.52c1.69-43.39,25.01-82.72,62.51-105.28c0.82-0.5,1.64-1.01,2.57-1.52c0.35-0.21,0.7-0.43,1.26-0.69
				c0.8-0.45,1.59-0.9,2.39-1.33l0.5-0.24c18.15-9.5,38.67-14.52,59.34-14.52c21,0,41.82,5.2,60.3,15.04l0.02,0.86h1.59
				c0.73,0.39,1.47,0.81,2.28,1.28l0.54,0.32c0.14,0.06,0.31,0.16,0.49,0.29l0.55,0.39h0.12c0.79,0.47,1.55,0.94,2.31,1.41
				l0.45,0.29c18.16,11.46,33.29,27.38,43.75,46.03l0.83,1.48c0.97-1.33,1.97-2.69,3.23-3.76c0.93-0.8,1.94-1.51,2.92-2.25
				C341.23,455.09,329.33,441.31,314.88,430.11z"/>
		</g>
	</g>
	<g>
		<g>
			<path class="st5" d="M580.68,202.92c-0.11-0.4-0.2-0.8-0.27-1.2c-4.26-3.37-8.65-6.53-13.26-9.32c-0.34-0.21-0.67-0.42-1.01-0.59
				c-1.01-0.63-2.02-1.27-3.08-1.81c-0.3-0.21-0.63-0.38-0.97-0.55c-19.87-11.05-42.44-16.96-65.42-16.96
				c-22.86,0-44.46,5.74-63.36,15.86c-0.68,0.34-1.35,0.72-2.02,1.14c-0.68,0.34-1.35,0.72-2.03,1.14c-0.04,0-0.08,0.04-0.08,0.04
				c-0.68,0.38-1.35,0.76-2.03,1.18c-31.34,18.9-54.37,50.2-62.34,87.02c-0.89,4.01-1.56,8.1-2.02,12.23c0,0.04,0,0.08,0,0.08
				c-0.38,2.83-0.63,5.61-0.8,8.52c0,0.38-0.04,0.76-0.04,1.18c-0.04,0.76-0.08,1.52-0.08,2.32c-0.04,0.34-0.04,0.68-0.04,1.01v0.21
				c0,0.34-0.04,0.68,0,1.01c-0.04,0.63-0.04,1.31-0.04,1.98v0.46c0,0.38,0,0.76,0.04,1.14c0.04,4.94,0.34,9.83,0.97,14.64
				c0.46,4.13,1.18,8.23,2.07,12.23c6.5,29.95,23.03,56.95,46.91,76.35h0.04c4.81,3.92,9.91,7.55,15.31,10.76
				c0.93,0.59,1.86,1.14,2.78,1.69h0.04l1.69-2.95l0.34-0.59c-0.25-0.13-0.51-0.3-0.72-0.42c-0.51-0.3-0.97-0.59-1.48-0.89
				c-0.17-0.08-0.38-0.21-0.55-0.34c-34.51-20.8-57.37-56.4-62.3-95.88c-0.72-5.23-1.05-10.5-1.05-15.86v-1.18
				c0-0.34,0-0.63,0.04-0.97c0-0.84,0-1.65,0.04-2.49v-0.04c0-0.3,0-0.59,0.04-0.89v-0.38c0-0.34,0.04-0.68,0.04-1.05
				c0.17-3.21,0.42-6.37,0.84-9.53c5.02-40.58,28.68-75.51,62.18-95.75c0.13-0.08,0.21-0.17,0.34-0.21c0.63-0.38,1.26-0.76,1.9-1.14
				c0.63-0.38,1.27-0.76,1.94-1.1c0.04-0.04,0.13-0.08,0.21-0.13c0.63-0.34,1.31-0.72,1.94-1.05c18.31-9.74,39.14-15.27,61.29-15.27
				c21.85,0,43.32,5.53,62.3,15.82c1.01,0.51,2.03,1.05,3,1.65c0.38,0.21,0.76,0.42,1.14,0.67c0.97,0.55,1.94,1.14,2.87,1.73
				c4.85,2.99,9.49,6.37,13.92,10l0.78-0.93C580.71,204.64,580.71,203.78,580.68,202.92z"/>
			<path class="st5" d="M580.65,205.98c0.08-1.03,0.07-2.06,0.03-3.08c-0.39-1.39-0.55-2.78-0.53-4.14
				c-3.93-3.02-7.93-5.77-11.93-8.2c-0.38-0.24-0.76-0.47-0.96-0.56c-1.02-0.64-2.04-1.28-3.11-1.83c-0.34-0.23-0.71-0.42-1.04-0.59
				c-20.26-11.27-43.24-17.23-66.45-17.23c-22.43,0-44.68,5.57-64.3,16.09c-0.74,0.37-1.47,0.78-2.03,1.14
				c-0.58,0.29-1.15,0.6-1.73,0.95l-0.32,0.01l-0.41,0.41c-0.62,0.35-1.24,0.7-1.83,1.07c-32.3,19.47-55.37,51.69-63.31,88.37
				c-0.89,4.05-1.59,8.24-2.05,12.49c-0.37,2.74-0.64,5.57-0.83,8.8l-0.02,0.44c-0.01,0.24-0.03,0.48-0.04,0.88
				c-0.04,0.71-0.08,1.42-0.06,1.91c-0.05,0.42-0.06,0.85-0.06,1.27l-0.01,0.46c-0.01,0.26-0.02,0.53,0,0.79
				c-0.04,0.63-0.04,1.29-0.04,1.95v0.47c0,0.46,0.01,0.92,0.04,1.16c0.05,5.23,0.38,10.24,0.99,14.85
				c0.44,3.95,1.15,8.14,2.1,12.44c6.59,30.39,23.51,57.93,47.64,77.54l0.62,0.47h0c4.88,3.93,9.91,7.45,14.93,10.43
				c0.95,0.6,1.89,1.16,2.84,1.72l0.54,0.3h1.8l3.75-6.55l-2.01-0.99c-0.13-0.06-0.25-0.14-0.59-0.35l-2-1.21
				c-33.53-20.2-56.45-55.47-61.31-94.36c-0.69-5-1.03-10.25-1.03-15.57v-1.18c0-0.25-0.01-0.46,0.04-0.97c0-0.81,0-1.58,0.04-2.53
				c0-0.2-0.01-0.39,0.04-0.89l0.02-0.75c0.01-0.22,0.03-0.45,0.02-0.58c0.18-3.49,0.45-6.55,0.83-9.38
				c4.79-38.73,27.66-73.94,61.17-94.21l2.23-1.34c0.59-0.35,1.18-0.71,1.81-1.02l2.19-1.2c18.73-9.97,39.02-15.02,60.3-15.02
				c21.32,0,42.52,5.38,61.36,15.59c0.96,0.48,1.93,1,3.02,1.66c0.3,0.17,0.6,0.33,1.02,0.61c0.94,0.53,1.88,1.1,2.8,1.69
				c4.55,2.81,9.15,6.12,13.69,9.83l1.61,1.32l0.33-0.4C580.47,207.99,580.51,206.99,580.65,205.98z"/>
		</g>
	</g>
	<path class="st6" d="M500.71,305.44c0.04-0.34,0-0.68,0-1.01v-0.21c0-0.34,0-0.68-0.04-1.01c0-0.8-0.04-1.56-0.08-2.32
		c0-0.38-0.04-0.76-0.04-1.14c-0.17-2.91-0.42-5.74-0.8-8.61v-0.04c-0.46-4.18-1.18-8.23-2.07-12.27v-0.04
		c-7.97-36.78-31-68.04-62.3-86.94c-0.68-0.42-1.35-0.8-2.02-1.18c0,0-0.04-0.04-0.08-0.04c-0.63-0.42-1.31-0.8-1.98-1.14
		c-0.68-0.42-1.35-0.8-2.07-1.14c-18.9-10.12-40.45-15.86-63.36-15.86c-23.71,0-46.02,6.16-65.42,16.96
		c-0.34,0.17-0.68,0.38-1.01,0.59c-1.01,0.55-2.02,1.14-3.04,1.73c-0.34,0.21-0.72,0.42-1.05,0.68
		c-36.87,22.69-62.09,62.64-64.24,108.53c-0.04,0.3-0.04,0.63-0.04,0.97v0.04c-0.04,0.34-0.04,0.63-0.04,1.01
		c-0.04,0.89-0.04,1.77-0.04,2.66c-0.04,0.3-0.04,0.59-0.04,0.93v1.18c0.13,43.19,20.63,81.71,52.43,106.34
		c3.8,2.91,7.76,5.69,11.85,8.18c0.04,0.04,0.08,0.08,0.13,0.08c0.34,0.21,0.63,0.42,0.97,0.59c0.04,0.04,0.08,0.08,0.13,0.08
		c0.93,0.55,1.86,1.1,2.78,1.6c0.04,0.08,0.13,0.13,0.21,0.13c0.29,0.21,0.59,0.38,0.89,0.51c0.08,0.08,0.17,0.13,0.25,0.17
		c4.18,2.32,8.52,4.43,12.99,6.33h0.04c16.07,6.79,33.75,10.55,52.26,10.55c12.32,0,24.55-1.69,36.32-4.98
		c11.73-3.29,23.03-8.14,33.54-14.51c32.35-19.61,54.37-50.87,62.01-86.77c0.89-4.05,1.56-8.06,2.07-12.23v-0.13
		c0.59-4.85,0.89-9.74,0.93-14.72c0.04-0.34,0.04-0.72,0.04-1.1v-0.46C500.75,306.75,500.75,306.07,500.71,305.44z M433.59,419.37
		c-0.08,0.04-0.21,0.13-0.3,0.17c-0.17,0.13-0.34,0.21-0.51,0.3c-0.51,0.3-1.01,0.63-1.56,0.89c-0.21,0.17-0.42,0.3-0.68,0.42
		c-1.14,0.63-2.28,1.27-3.46,1.86c-0.25,0.17-0.51,0.34-0.8,0.46c-18.56,9.66-39.31,14.76-60.45,14.76
		c-22.57,0-43.79-5.74-62.35-15.86l-0.04-0.04h-0.04c-1.01-0.55-2.02-1.1-2.99-1.65v-0.04c-0.34-0.17-0.68-0.38-1.01-0.59
		c-0.04,0-0.13-0.04-0.17-0.08c-0.97-0.59-1.94-1.18-2.91-1.77v-0.04h-0.04c-36.36-22.9-60.7-63.15-61.29-109.08v-1.65
		c0-0.67,0-1.35,0.04-2.02c-0.04-0.38,0-0.72,0-1.1c0-0.34,0-0.67,0.04-1.01c0-0.89,0.04-1.73,0.08-2.62
		c2.23-43.91,26.24-82.17,61.42-104.19c0.93-0.59,1.86-1.18,2.83-1.73c0.38-0.25,0.76-0.46,1.14-0.68c0.93-0.55,1.9-1.1,2.87-1.6
		c18.56-10.12,39.82-15.9,62.43-15.9c22.15,0,42.98,5.53,61.29,15.27c0.68,0.34,1.31,0.72,1.98,1.1c0.08,0.04,0.17,0.04,0.21,0.08
		c0.68,0.38,1.31,0.76,1.94,1.1c0.63,0.38,1.22,0.76,1.86,1.14c0.13,0.04,0.21,0.13,0.34,0.21c33.41,20.25,57.11,55.01,62.18,95.54
		v0.04c0.38,3.21,0.67,6.5,0.84,9.74c0,0.34,0.04,0.68,0.04,1.01v0.38c0.04,0.3,0.04,0.59,0.04,0.89v0.04
		c0.04,0.84,0.04,1.6,0.04,2.45c0.04,0.34,0.04,0.63,0.04,0.97v1.22c0,5.44-0.34,10.8-1.01,16.07v0.08
		C490.75,363.44,468.31,398.28,433.59,419.37z"/>
	<path class="st5" d="M426.3,423.46c-18.56,9.66-39.31,14.76-60.45,14.76c-22.57,0-43.79-5.74-62.35-15.86
		c0.17-0.08,0.3-0.17,0.46-0.3c0.04-0.04,0.13-0.08,0.17-0.13h0.04c0.04,0,0.08-0.04,0.08-0.04c17.89-9.15,38.09-14.34,59.52-14.34
		C385.67,407.56,407.23,413.05,426.3,423.46z"/>
	<path class="st5" d="M495.64,323.83v0.08c-4.89,39.52-27.33,74.37-62.05,95.46c-0.08,0.04-0.21,0.13-0.3,0.17
		c0.08-46.53,24.59-87.44,61.37-110.52C494.71,313.96,495.05,318.94,495.64,323.83z"/>
	<path class="st5" d="M429.21,419.5c-34.51-20.8-57.37-56.4-62.3-95.88c0.59-4.77,0.89-9.66,0.97-14.6
		C404.61,332.14,429.08,373.01,429.21,419.5z"/>
	<path class="st7" d="M362.77,323.66c-4.98,40.12-28.22,74.66-61.08,94.99c-0.04,0.04-0.13,0.08-0.17,0.08
		c-0.04,0.04-0.08,0.08-0.13,0.08c-0.34,0.17-0.63,0.34-0.97,0.51c0.17-46.44,24.68-87.23,61.37-110.31
		C361.84,313.96,362.14,318.85,362.77,323.66z"/>
	<g>
		<g>
			<path class="st5" d="M502.69,304.34c-0.34-0.17-0.63-0.34-0.93-0.55c-0.38-0.17-0.76-0.38-1.1-0.59
				c-0.63-0.34-1.27-0.68-1.86-1.05c-0.08-0.04-0.17-0.08-0.25-0.17c-0.3-0.13-0.59-0.3-0.89-0.46c-0.42-0.25-0.8-0.46-1.18-0.72
				c-0.55-0.34-1.05-0.67-1.6-1.01c-35.31-22.1-59.22-60.57-61.42-104.32c-0.04-0.84-0.08-1.69-0.04-2.57
				c-0.08-0.72-0.08-1.48-0.08-2.24c-0.04-0.59-0.04-1.22-0.04-1.81v-0.51c0.17-46.36,24.97-88.92,64.33-112.16
				c1.35-0.8,2.7-1.6,4.09-2.32c1.92-1.04,3.86-2.04,5.83-2.99c0.52-0.25,2.61-0.86,2.83-1.37c0.26-0.64-1.56-3.75-2.35-3.38
				c-3.55,1.63-7.03,3.38-10.39,5.3c-1.39,0.8-2.74,1.6-4.09,2.4c-32.9,20.25-55.6,53.78-62.26,91.66
				c-1.35,7.47-2.03,15.1-2.07,22.86v0.51c0,0.59,0,1.18,0.04,1.77c0,0.8,0,1.6,0.08,2.4c-0.04,0.76,0,1.52,0.04,2.24
				c0.25,5.74,0.89,11.35,1.9,16.87c5.69,32.73,23.33,61.63,48.38,81.79c4.43,3.63,9.11,6.92,14,9.87c0.3,0.21,0.55,0.38,0.84,0.55
				c0.04,0.04,0.13,0.08,0.17,0.13c0.63,0.38,1.26,0.76,1.94,1.1c0.34,0.25,0.72,0.46,1.1,0.63c0.25,0.21,0.55,0.34,0.84,0.46
				c0.04,0.08,0.08,0.13,0.17,0.13c0.67,0.38,1.35,0.76,2.02,1.1c4.89,2.66,9.95,4.98,15.18,6.96c12.23,4.71,25.34,7.69,39.03,8.59
				c0.06-0.12,0.12-0.25,0.18-0.37l0.27-3.66C536.43,318.14,518.59,312.82,502.69,304.34z"/>
			<path class="st5" d="M555.56,317.3c-18.29-1.22-35.73-6.21-51.83-14.82l-0.48-0.23c-0.09-0.05-0.18-0.11-0.27-0.17l-0.37-0.21
				c-0.29-0.13-0.57-0.29-0.96-0.53c-0.52-0.28-1.05-0.56-1.72-0.96l-0.53-0.33c-0.23-0.1-0.46-0.23-0.65-0.34l-0.36-0.22
				c-0.25-0.15-0.5-0.29-0.8-0.49l-1.59-1c-35.74-22.37-58.33-60.74-60.44-102.71c-0.03-0.75-0.07-1.5-0.03-2.29l0.01-0.17
				l-0.02-0.17c-0.08-0.64-0.07-1.31-0.08-2.14c-0.04-0.54-0.04-1.12-0.04-1.66v-0.5c0.16-45.11,24.41-87.4,63.36-110.4
				c1.29-0.77,2.58-1.54,3.96-2.25c2.89-1.57,5.81-3.02,8.68-4.32l1.92-0.86l-0.37-0.83c-0.88-0.67-1.75-1.36-2.57-2.1
				c-1.43-0.73-2.75-1.65-3.93-2.81c-0.05-0.06-0.1-0.13-0.15-0.19c-3.36,1.57-6.64,3.22-9.72,4.99c-1.32,0.76-2.61,1.52-4.15,2.43
				c-33.39,20.55-56.44,54.48-63.23,93.08c-1.35,7.48-2.06,15.29-2.1,23.24v0.5c0,0.64,0,1.28,0.04,1.77c0,0.82,0.01,1.64,0.08,2.46
				c-0.03,0.79,0.01,1.57,0.05,2.27c0.25,5.73,0.89,11.43,1.89,16.93l0.03,0.21c5.68,32.63,23.11,62.13,49.09,83.07l0.55,0.41
				c4.3,3.48,8.91,6.71,13.61,9.54c0.36,0.25,0.66,0.45,0.8,0.5l0.38,0.29c0.62,0.37,1.24,0.74,1.89,1.07
				c0.33,0.23,0.7,0.45,1.1,0.64c0.15,0.11,0.3,0.2,0.45,0.28l0.35,0.61h0.75c0.54,0.3,1.07,0.59,1.57,0.84
				c4.96,2.69,10.16,5.08,15.43,7.08c12.39,4.77,25.35,7.66,38.54,8.63c0.32-0.59,0.69-1.16,1.09-1.7c0.2-0.47,0.43-0.94,0.69-1.39
				c0.67-0.87,1.26-3.1,1.92-3.96l0.25-0.95L555.56,317.3z"/>
		</g>
	</g>
	<path class="st8" d="M561.91,195.39c-2.19,44-26.19,82.34-61.38,104.36c-0.17-2.91-0.42-5.74-0.8-8.61v-0.04
		C504.67,251.28,527.62,216.06,561.91,195.39z"/>
	<path class="st8" d="M495.64,291.01v0.04c-0.38,2.87-0.63,5.78-0.76,8.73c-35.31-22.1-59.22-60.57-61.42-104.32
		C466.88,215.72,490.58,250.48,495.64,291.01z"/>
	<path class="st9" d="M363.61,300.76c-36.07-21.85-60.78-60.66-63.02-105.29C336.66,217.32,361.38,256.13,363.61,300.76z"/>
	<path class="st7" d="M492.65,304.3c-18.31,9.79-39.23,15.35-61.42,15.35c-22.15,0-43.07-5.57-61.37-15.35
		c18.31-9.79,39.23-15.31,61.37-15.31C452.95,288.99,474,294.39,492.65,304.3z"/>
	<path class="st6" d="M364.84,301.47c-0.25,0.17-0.55,0.34-0.84,0.51c0.29,0.17,0.55,0.34,0.84,0.46c0.25-0.17,0.51-0.3,0.8-0.42
		c0.13,0.04,0.25,0.08,0.34,0.17v-0.38c0-0.34,0.04-0.68,0.04-1.05C365.64,301.01,365.22,301.26,364.84,301.47z M360.75,303.79
		c-0.34,0.21-0.63,0.38-0.97,0.55c0.34,0.17,0.67,0.34,1.01,0.51c0.34,0.21,0.68,0.38,1.01,0.59c-0.04-0.34,0-0.68,0-1.01v-0.21
		c0.59-0.38,1.22-0.72,1.86-1.1c0.04-0.3,0.04-0.63,0-0.93c-0.59,0.34-1.18,0.68-1.81,1.01
		C361.46,303.41,361.12,303.63,360.75,303.79z M431.27,165.48c-6.79-38.68-30.12-71.75-62.39-91.58c-1.35-0.84-2.7-1.65-4.09-2.45
		c-19.62-11.14-42.31-17.51-66.44-17.51c-74.37,0-134.9,60.49-134.9,134.9c0,1.01,0,1.98,0.04,2.95c0.04,1.6,0.08,3.12,0.17,4.68
		c2.19,39.31,21.3,74.16,50.15,97.4c4.72,3.84,9.7,7.34,14.93,10.46c0.72,0.46,1.43,0.89,2.19,1.31c0.59,0.34,1.18,0.72,1.81,1.01
		c0,0,0,0,0.04,0c0.72,0.46,1.43,0.84,2.19,1.27c4.85,2.57,9.87,4.89,15.06,6.88c15.02,5.78,31.3,8.94,48.3,8.94
		c17.04,0,33.32-3.16,48.34-8.94c5.19-1.98,10.21-4.3,15.06-6.92c0.68-0.34,1.35-0.72,2.03-1.1c0.08,0,0.13-0.04,0.17-0.13
		c0.04,0,0.04,0,0.04,0c0.29-0.13,0.55-0.3,0.84-0.46c0.38-0.17,0.72-0.38,1.05-0.59c0.63-0.38,1.31-0.76,1.94-1.14
		c0.04-0.04,0.08-0.08,0.17-0.13c0.29-0.17,0.59-0.34,0.89-0.55c4.89-3,9.58-6.29,14.05-9.91c24.93-20.08,42.6-48.89,48.34-81.75
		v-0.04c0.97-5.53,1.6-11.09,1.86-16.83c0.04-0.72,0.08-1.48,0.08-2.24c0.04-0.8,0.04-1.6,0.04-2.4c0.04-0.59,0.04-1.18,0.04-1.77
		v-0.51C433.26,180.54,432.58,172.9,431.27,165.48z M367.62,299.79c-0.55,0.34-1.05,0.68-1.6,0.97c-0.38,0.25-0.8,0.51-1.18,0.72
		c-0.25,0.17-0.55,0.34-0.84,0.51h-0.04c-0.08,0.08-0.17,0.13-0.29,0.21c-0.59,0.34-1.18,0.68-1.81,1.01
		c-0.38,0.21-0.72,0.42-1.1,0.59c-0.34,0.21-0.63,0.38-0.97,0.55c-18.31,9.74-39.23,15.31-61.42,15.31
		c-22.15,0-43.07-5.53-61.37-15.31h-0.04c-0.63-0.34-1.22-0.67-1.86-1.05c-0.8-0.42-1.52-0.84-2.28-1.31c-0.04,0-0.04,0-0.04,0
		c-0.59-0.34-1.14-0.67-1.69-1.01c-36.61-22.02-61.63-61.54-63.4-106.89c-0.08-1.52-0.13-3.08-0.13-4.64v-0.59
		c0-72.13,58.67-130.81,130.81-130.81c22.57,0,43.78,5.74,62.34,15.82h0.04c1.39,0.76,2.74,1.56,4.09,2.36
		c38.38,22.69,64.2,64.45,64.37,112.12v0.51c0,0.59,0,1.22-0.04,1.81c0,0.76,0,1.52-0.04,2.28c0,0.84-0.04,1.69-0.08,2.53
		C426.84,239.47,402.84,277.77,367.62,299.79z M361.84,303.2c-0.38,0.21-0.72,0.42-1.1,0.59c-0.34,0.21-0.63,0.38-0.97,0.55
		c0.34,0.17,0.67,0.34,1.01,0.51c0.34,0.21,0.68,0.38,1.01,0.59c-0.04-0.34,0-0.68,0-1.01v-0.21c0.59-0.38,1.22-0.72,1.86-1.1
		c0.04-0.3,0.04-0.63,0-0.93C363.06,302.53,362.47,302.87,361.84,303.2z M364.84,301.47c-0.25,0.17-0.55,0.34-0.84,0.51
		c0.29,0.17,0.55,0.34,0.84,0.46c0.25-0.17,0.51-0.3,0.8-0.42c0.13,0.04,0.25,0.08,0.34,0.17v-0.38c0-0.34,0.04-0.68,0.04-1.05
		C365.64,301.01,365.22,301.26,364.84,301.47z"/>
	<path class="st9" d="M359.78,304.34c-18.31,9.74-39.23,15.31-61.42,15.31c-22.15,0-43.07-5.53-61.37-15.31
		c18.31-9.83,39.23-15.35,61.37-15.35C320.55,288.99,341.47,294.56,359.78,304.34z"/>
	<path class="st9" d="M429.04,195.47c-2.19,44-26.19,82.3-61.42,104.32c-0.13-2.91-0.38-5.74-0.76-8.56
		C371.88,250.64,395.55,215.72,429.04,195.47z"/>
	<g>
		<g>
			<path class="st5" d="M354.65,768.93c-17.61,8.45-36.55,12.7-56.29,12.7c-72.13,0-130.81-58.68-130.81-130.81
				c0-48.26,26.24-90.48,65.21-113.17c1.39-0.8,2.78-1.6,4.22-2.36c18.31-9.79,39.23-15.31,61.38-15.31c4.43,0,8.9,0.25,13.29,0.68
				c0.21,0.02,0.41,0.04,0.62,0.06c0.13-0.23,0.26-0.47,0.41-0.69c0.12-0.17,0.26-0.34,0.39-0.51l0.32-2.79
				c-4.98-0.55-10-0.8-15.02-0.8c-23.79,0-46.19,6.2-65.59,17.04c-1.35,0.76-2.7,1.56-4.01,2.36c-39.1,23.62-65.3,66.52-65.3,115.49
				c0,74.41,60.53,134.9,134.9,134.9c20.46,0,40.12-4.47,58.42-13.25l-1.3-2.73C355.19,769.48,354.91,769.21,354.65,768.93z"/>
			<path class="st5" d="M358.56,772.01c-0.16-0.09-0.3-0.21-0.47-0.3c-1.95-1.15-3.54-2.66-4.81-4.48
				c-17.14,8.14-35.61,12.29-54.92,12.29c-70.96,0-128.7-57.73-128.7-128.7c0-45.64,24.59-88.31,64.16-111.34
				c1.37-0.79,2.74-1.58,4.16-2.33c18.44-9.86,39.32-15.06,60.38-15.06c4.03,0,8.39,0.22,12.94,0.65c0.37-0.95,0.79-1.88,1.37-2.71
				c0.29-0.41,0.6-0.8,0.91-1.2c0.25-0.33,0.47-0.68,0.66-1.04c0.07-0.12,0.17-0.23,0.24-0.36c0.34-0.82,0.74-1.6,1.22-2.34
				l0.03-0.22l-2.11-0.23c-4.9-0.54-10.02-0.82-15.25-0.82c-23.32,0-46.36,5.99-66.63,17.31c-1.37,0.77-2.75,1.59-4.06,2.4
				c-41.52,25.08-66.32,68.93-66.32,117.3c0,75.55,61.46,137.01,137.01,137.01c20.75,0,40.71-4.53,59.33-13.45l1.9-0.91l-0.48-1
				C358.93,772.3,358.73,772.19,358.56,772.01z M198.75,562.95c-13.19,14.99-22.9,32.79-28.33,52.01
				C175.79,595.65,185.46,577.92,198.75,562.95z"/>
		</g>
	</g>
	<g>
		<g>
			<path class="st5" d="M431.27,396.38v-0.04c-5.78-32.78-23.45-61.5-48.34-81.54c-4.47-3.63-9.2-6.96-14.09-9.95
				c-0.3-0.17-0.59-0.38-0.84-0.51c-0.08-0.08-0.17-0.13-0.21-0.13c-0.63-0.38-1.22-0.76-1.86-1.1v-0.04
				c-0.34-0.17-0.72-0.38-1.1-0.63c-0.3-0.13-0.55-0.3-0.84-0.46h-0.04c-0.08-0.08-0.21-0.13-0.29-0.17
				c-0.59-0.34-1.14-0.63-1.73-0.93c-4.93-2.66-10-4.98-15.27-7l-0.04-0.04c-14.97-5.74-31.26-8.9-48.26-8.9
				c-22.82,0-44.33,5.69-63.19,15.73c-0.8,0.42-1.6,0.84-2.36,1.31c-0.04,0-0.04,0-0.04,0c-0.3,0.17-0.55,0.29-0.8,0.46
				c0,0,0,0-0.04,0c-0.34,0.17-0.63,0.38-0.93,0.55c-0.76,0.42-1.52,0.89-2.23,1.35c-0.3,0.13-0.55,0.34-0.84,0.51
				c-38.17,23.45-63.86,65.42-64.45,113.34v1.65c0,0.59,0,1.18,0.04,1.77c-0.04,0.46,0,0.93,0,1.39c0,1.1,0.04,2.19,0.13,3.25
				c2.15,45.94,27.33,85.88,64.24,108.53c0.29,0.21,0.59,0.38,0.89,0.55c0.04,0.04,0.13,0.04,0.17,0.08
				c1.01,0.63,1.94,1.22,2.99,1.81c0.04,0,0.04,0,0.04,0c0.25,0.13,0.55,0.29,0.8,0.42c0.08,0.04,0.13,0.08,0.21,0.13
				c19.11,10.66,41.1,16.77,64.46,16.93c0.04-0.12,0.05-0.25,0.09-0.38c0.28-0.69,0.55-1.4,0.83-2.1v-1.59
				c-22.19,0-43.07-5.53-61.38-15.35c-0.34-0.17-0.63-0.34-0.97-0.51c-0.97-0.51-1.94-1.05-2.91-1.6c-0.13-0.08-0.21-0.13-0.34-0.21
				c-0.25-0.17-0.55-0.3-0.8-0.46c0,0,0,0-0.04,0c-0.97-0.59-1.9-1.14-2.83-1.77c-35.47-22.19-59.56-60.91-61.42-105.33
				c-0.04-0.46-0.04-0.97-0.04-1.48c-0.04-1.1-0.08-2.15-0.08-3.25v-1.35c0.17-47.29,25.56-88.71,63.36-111.57
				c0.34-0.21,0.72-0.42,1.05-0.59c0.25-0.17,0.51-0.34,0.8-0.51c0,0,0,0,0.04,0c0.72-0.46,1.48-0.89,2.24-1.27
				c0.3-0.21,0.63-0.38,0.93-0.55c0.34-0.17,0.63-0.34,0.97-0.51h0.04c18.31-9.83,39.23-15.35,61.38-15.35
				c22.19,0,43.11,5.57,61.42,15.35c0.34,0.17,0.67,0.34,1.01,0.51c0.34,0.21,0.68,0.38,1.01,0.59c0.67,0.34,1.35,0.72,1.98,1.1
				v0.04c0.08,0,0.13,0.04,0.17,0.08c0.04,0,0.04,0,0.04,0c0.29,0.17,0.59,0.34,0.84,0.51c0.34,0.21,0.67,0.38,1.01,0.59
				c0.67,0.42,1.35,0.84,2.02,1.27c36.74,23.12,61.21,63.99,61.33,110.47v0.34h4.09v-0.29C433.3,411.65,432.58,403.89,431.27,396.38
				z"/>
			<path class="st5" d="M433.38,396.2l-0.03-0.23c-5.74-32.53-23.17-61.95-49.09-82.81c-4.51-3.66-9.33-7.06-14.38-10.15l-0.31-0.19
				c-0.12-0.08-0.24-0.15-0.36-0.22l-0.56-0.5h-0.29c-0.11-0.07-0.23-0.14-0.33-0.2l-1.17-0.71c-0.27-0.14-0.57-0.3-0.87-0.5
				l-0.34-0.18c-0.13-0.06-0.25-0.13-0.63-0.35l-0.09-0.05c-0.09-0.06-0.17-0.09-0.21-0.11l-0.17-0.09
				c-0.57-0.32-1.11-0.61-1.64-0.87c-4.91-2.64-9.86-4.92-15.09-6.95l-0.47-0.2c-15.66-6-32.15-9.04-49.01-9.04
				c-22.35,0-44.54,5.53-64.16,15.97c-0.74,0.39-1.49,0.78-2.2,1.2l-0.5,0.26c-0.14,0.08-0.27,0.15-0.4,0.23l-0.12,0.06
				c-0.27,0.13-0.52,0.29-0.77,0.44l-0.25,0.15c-0.76,0.42-1.52,0.89-2.24,1.35c-0.23,0.11-0.44,0.25-0.65,0.39l-0.27,0.17
				c-40.41,24.82-64.88,67.86-65.46,115.14v1.65c0,0.59,0,1.17,0.04,1.76c-0.02,0.33-0.01,0.67,0,1l0.01,0.4
				c0,1.15,0.05,2.31,0.13,3.34c2.12,45.25,26.51,86.46,65.12,110.14c0.3,0.22,0.59,0.4,0.89,0.57l0.62,0.35
				c0.92,0.57,1.78,1.12,2.75,1.66l1.05,0.55c19.82,11.05,42.3,16.96,65.1,17.18c0.08-0.82,0.22-1.65,0.48-2.47
				c0.78-1.95,1.52-3.95,2.53-5.8h-1.7c-21.1,0-41.98-5.22-60.44-15.13l-0.94-0.49c-0.95-0.49-1.89-1.03-3.06-1.7
				c-0.18-0.12-0.37-0.22-0.79-0.46l-0.63-0.36c-0.76-0.46-1.49-0.9-2.29-1.45c-36.07-22.55-58.66-61.3-60.44-103.73
				c-0.04-0.4-0.03-0.84-0.04-1.49c-0.04-1.03-0.08-2.01-0.08-3.04v-1.34c0.16-45.22,23.46-86.26,62.37-109.79
				c0.28-0.18,0.59-0.35,0.87-0.49l0.3-0.18c0.05-0.04,0.11-0.07,0.17-0.11l0.59-0.34c0.65-0.42,1.34-0.8,2.03-1.15l0.29-0.17
				c0.16-0.11,0.33-0.2,0.65-0.38l1.07-0.53c18.41-9.88,39.29-15.1,60.38-15.1c21.04,0,41.93,5.22,60.46,15.12l2.04,1.11
				c0.27,0.14,0.55,0.28,0.81,0.43v0.93l1.75,0.08c0.1,0.06,0.2,0.12,0.3,0.19c0.19,0.12,0.38,0.23,0.57,0.33l2.46,1.52
				c37.66,23.7,60.22,64.33,60.34,108.69v2.45h8.31v-2.41C435.41,411.84,434.73,403.99,433.38,396.2z M231.96,534.62v-0.43l0.8-1.22
				l-0.66,1.93c-0.15-0.09-0.29-0.17-0.44-0.26L231.96,534.62z"/>
		</g>
	</g>
	<path class="st6" d="M296.33,420.43c0,0.42,0,0.8-0.04,1.22c0.04,0,0.04,0.04,0.04,0.08c0-0.04,0-0.08,0.04-0.13
		C296.33,421.23,296.33,420.81,296.33,420.43z M298.4,396.51v-0.13c-5.78-32.78-23.45-61.54-48.34-81.58
		c-4.47-3.63-9.2-6.96-14.09-9.95c-0.3-0.21-0.63-0.38-0.93-0.55c-1.01-0.63-2.02-1.22-3.08-1.86c0,0,0,0-0.04,0
		c-0.3-0.17-0.59-0.34-0.89-0.46v-0.04c-5.53-3.08-11.26-5.78-17.21-8.06c-15.02-5.78-31.3-8.94-48.3-8.94
		c-22.82,0-44.38,5.69-63.23,15.73v0.04c-1.39,0.72-2.83,1.48-4.18,2.28c-40.33,23.37-67.53,66.98-67.53,116.84
		c0,49.02,26.28,92,65.47,115.58c1.35,0.84,2.7,1.64,4.05,2.36c19.4,10.8,41.72,16.96,65.42,16.96c22.86,0,44.46-5.74,63.36-15.86
		c1.01-0.51,2.03-1.1,3.04-1.64c0.04,0,0.04,0,0.04,0c0.38-0.21,0.72-0.42,1.05-0.63c1.01-0.59,2.02-1.18,2.99-1.81
		c32.27-19.83,55.6-52.9,62.39-91.58v-0.04c0.89-5.15,1.52-10.38,1.81-15.69c0.04-0.72,0.08-1.43,0.08-2.19
		c0.04-0.34,0.04-0.67,0.04-1.01v-0.25c0.04-0.38,0.04-0.8,0.04-1.22c0.04-0.68,0.04-1.39,0.04-2.11v-1.35
		C300.38,411.57,299.71,403.93,298.4,396.51z M296.16,426.59c-2.28,44.59-27,83.35-63.02,105.16c-0.38,0.25-0.8,0.51-1.18,0.76
		c0,0,0,0-0.04,0c-0.97,0.59-1.94,1.14-2.95,1.69c-0.38,0.21-0.72,0.42-1.1,0.59c-18.56,10.12-39.78,15.86-62.35,15.86
		c-23.75,0-46.06-6.37-65.3-17.46c-1.35-0.8-2.7-1.6-4.01-2.45c-36.95-23.12-61.54-64.2-61.54-110.9
		c0-47.45,25.44-89.13,63.36-112.08c1.39-0.8,2.74-1.6,4.13-2.36c18.81-10.46,40.41-16.41,63.36-16.41
		c22.57,0,43.83,5.74,62.39,15.86c1.01,0.55,2.02,1.14,3,1.73c0.38,0.17,0.72,0.38,1.05,0.59c1.01,0.59,2.02,1.22,3.04,1.86v0.04
		c36.36,22.86,60.74,63.15,61.29,109.08h0.04v2.28c0,0.42,0,0.8-0.04,1.22c0.04,0,0.04,0.04,0.04,0.08c0,0.04,0,0.08-0.04,0.08
		c0.04,0.38,0,0.76,0,1.14c0,0.72-0.04,1.39-0.08,2.11c0,0.46,0,0.93-0.04,1.39c0,0.04,0,0.08,0,0.08
		C296.16,426.59,296.16,426.59,296.16,426.59z M296.33,420.43c0,0.42,0,0.8-0.04,1.22c0.04,0,0.04,0.04,0.04,0.08
		c0-0.04,0-0.08,0.04-0.13C296.33,421.23,296.33,420.81,296.33,420.43z"/>
	<path class="st10" d="M296.16,426.59c-2.28,44.59-27,83.35-63.02,105.16c2.19-44.04,26.28-82.38,61.54-104.4
		c0.04,0,0.04-0.04,0.08-0.04C295.24,427.05,295.74,426.84,296.16,426.59z"/>
	<path class="st10" d="M293.25,423.42c-0.13,0.08-0.3,0.17-0.42,0.3c-0.04,0-0.04,0.04-0.08,0.04
		c-17.93,9.24-38.26,14.47-59.77,14.47c-22.61,0-43.83-5.78-62.39-15.9c18.05-9.45,38.6-14.76,60.32-14.76
		C253.06,407.56,274.44,413.17,293.25,423.42z"/>
	<path class="st9" d="M296.29,418.15c-36.36-22.9-60.7-63.15-61.29-109.08C271.36,331.93,295.74,372.21,296.29,418.15z"/>
	<circle class="st5" cx="431.25" cy="182.45" r="51.85"/>
	<path class="st10" d="M569.72,290.72l-6.15,15.37l-6.15,12.3c-18.98-1.27-38.83-5.57-54.69-14.05
		c18.31-9.83,39.23-15.35,61.38-15.35C565.92,288.99,567.95,290.68,569.72,290.72z"/>
	<path class="st7" d="M538.98,349.13l-9.22,9.22l-13.65,14.33c-8.65-15.02-14.21-31.68-16.32-48.85v-0.13
		c-0.72-5.31-1.05-10.63-1.05-15.99c0.67,0.42,1.31,0.84,1.98,1.27C515.6,318.3,528.69,334.28,538.98,349.13z"/>
	<path class="st10" d="M345.14,474.55l-18.43,23.96c-15.61-20.71-24.51-45.01-26.03-70.74
		C318.86,439.24,334.26,455.14,345.14,474.55z"/>
	<path class="st11" d="M311.65,520.65l-13.29,29.99c-22.19,0-43.07-5.53-61.37-15.35c18.31-9.79,39.23-15.31,61.37-15.31
		C302.79,519.98,307.26,520.23,311.65,520.65z"/>
	<path class="st6" d="M364.84,301.47c-0.38-0.21-0.8-0.46-1.22-0.72c0,0.34,0.04,0.72,0.04,1.05v0.38c0.13-0.08,0.21-0.13,0.29-0.21
		h0.04c0.29,0.17,0.55,0.34,0.84,0.46c0.25-0.17,0.51-0.3,0.8-0.42C365.39,301.81,365.13,301.68,364.84,301.47z M364.84,301.47
		c-0.38-0.21-0.8-0.46-1.22-0.72c0,0.34,0.04,0.72,0.04,1.05v0.38c0.13-0.08,0.21-0.13,0.29-0.21h0.04
		c0.29,0.17,0.55,0.34,0.84,0.46c0.25-0.17,0.51-0.3,0.8-0.42C365.39,301.81,365.13,301.68,364.84,301.47z M501.72,73.86
		c-1.35-0.84-2.7-1.64-4.09-2.45c-19.62-11.09-42.27-17.46-66.39-17.46c-24.17,0-46.82,6.37-66.44,17.51
		c-1.39,0.8-2.74,1.6-4.05,2.4h-0.04c-38.47,23.71-64.16,66.14-64.37,114.48v0.51c0,0.97,0,1.94,0.04,2.91
		c0,0.42,0.04,0.84,0.04,1.27c0.04,1.18,0.08,2.32,0.17,3.46c2.15,39.31,21.26,74.11,50.03,97.36l0.04,0.04
		c4.47,3.59,9.15,6.92,14.09,9.91c0.29,0.21,0.59,0.38,0.89,0.55c0.04,0.04,0.08,0.08,0.17,0.08c0.63,0.42,1.26,0.8,1.94,1.18
		c0.34,0.21,0.72,0.42,1.1,0.59c0.25,0.21,0.55,0.34,0.84,0.46c0.04,0.08,0.08,0.13,0.17,0.13c0.67,0.38,1.35,0.76,2.02,1.1
		c4.85,2.62,9.87,4.89,15.06,6.92c15.02,5.78,31.26,8.94,48.3,8.94c17.04,0,33.32-3.16,48.34-8.94c5.19-1.98,10.21-4.3,15.06-6.92
		c0.68-0.34,1.35-0.72,2.03-1.1c0.08-0.04,0.17-0.08,0.25-0.13c0.25-0.13,0.55-0.3,0.8-0.46c0.38-0.17,0.72-0.38,1.05-0.59
		c0.63-0.38,1.31-0.76,1.94-1.18c0.04,0,0.13-0.04,0.21-0.08h0.04c0.25-0.17,0.51-0.34,0.8-0.55c4.89-3,9.58-6.29,14.05-9.91
		c28.85-23.24,47.96-58.08,50.15-97.44c0.08-1.14,0.13-2.28,0.13-3.46v-0.04c0.04-0.38,0.04-0.76,0.04-1.14
		c0.04-0.97,0.04-1.94,0.04-2.95v-0.55C565.96,139.92,540.19,97.48,501.72,73.86z M500.54,299.74c-0.55,0.38-1.1,0.72-1.64,1.01
		c-0.42,0.3-0.8,0.51-1.22,0.76c-0.25,0.17-0.51,0.3-0.8,0.46c-0.08,0.08-0.21,0.13-0.34,0.21c-0.59,0.34-1.18,0.68-1.81,1.01
		c-0.34,0.21-0.72,0.38-1.05,0.59c-0.34,0.17-0.67,0.38-1.01,0.51c-18.31,9.79-39.23,15.35-61.42,15.35
		c-22.15,0-43.07-5.57-61.37-15.35c-0.34-0.13-0.63-0.34-0.97-0.51c-0.38-0.17-0.72-0.38-1.1-0.59c-0.59-0.34-1.18-0.67-1.81-1.01
		c-0.08-0.08-0.21-0.13-0.34-0.17c-0.25-0.21-0.51-0.34-0.8-0.55c-0.38-0.21-0.8-0.46-1.22-0.72c-0.55-0.34-1.1-0.68-1.65-1.05
		c-1.1-0.68-2.19-1.39-3.25-2.11c-1.1-0.72-2.15-1.48-3.21-2.19c-1.05-0.76-2.11-1.52-3.12-2.32c-1.22-0.89-2.45-1.81-3.59-2.78
		c-0.84-0.67-1.65-1.35-2.49-2.07c-1.18-0.97-2.32-2.02-3.46-3.08c-0.46-0.38-0.89-0.8-1.35-1.22c-1.27-1.18-2.49-2.4-3.67-3.63
		c-0.89-0.89-1.81-1.86-2.66-2.78c-0.93-0.97-1.81-1.98-2.7-2.99c-5.48-6.33-10.38-13.16-14.59-20.46c-0.97-1.65-1.9-3.33-2.78-5.06
		c-1.01-1.86-1.94-3.8-2.83-5.74c-1.64-3.67-3.2-7.42-4.51-11.26c-0.46-1.31-0.89-2.62-1.31-3.97c-1.27-3.96-2.36-8.01-3.21-12.11
		c-0.59-2.66-1.05-5.36-1.43-8.06c-0.25-1.73-0.46-3.5-0.67-5.23c-0.25-2.36-0.42-4.77-0.55-7.17c-0.04-0.46-0.04-0.93-0.04-1.39
		c-0.04-1.14-0.08-2.28-0.08-3.42c-0.04-0.38-0.04-0.8-0.04-1.22v-0.59c0-47.92,25.9-89.89,64.41-112.63
		c1.35-0.84,2.7-1.6,4.05-2.32c18.56-10.12,39.78-15.86,62.35-15.86c22.57,0,43.78,5.74,62.3,15.78c1.39,0.76,2.74,1.56,4.09,2.36
		c38.55,22.74,64.45,64.75,64.45,112.67v0.59c0,0.38,0,0.76-0.04,1.14c0,1.18,0,2.32-0.08,3.46c0,0.46,0,0.93-0.04,1.35
		C559.72,239.38,535.72,277.73,500.54,299.74z M364.84,301.47c-0.38-0.21-0.8-0.46-1.22-0.72c0,0.34,0.04,0.72,0.04,1.05v0.38
		c0.13-0.08,0.21-0.13,0.29-0.21h0.04c0.29,0.17,0.55,0.34,0.84,0.46c0.25-0.17,0.51-0.3,0.8-0.42
		C365.39,301.81,365.13,301.68,364.84,301.47z M364.84,301.47c-0.38-0.21-0.8-0.46-1.22-0.72c0,0.34,0.04,0.72,0.04,1.05v0.38
		c0.13-0.08,0.21-0.13,0.29-0.21h0.04c0.29,0.17,0.55,0.34,0.84,0.46c0.25-0.17,0.51-0.3,0.8-0.42
		C365.39,301.81,365.13,301.68,364.84,301.47z"/>
	<g>
		<path class="st6" d="M367.83,305.44v-0.97c0-0.08,0-0.17-0.04-0.25v-1.01c-0.04-0.76-0.04-1.56-0.13-2.32c0-0.38,0-0.76-0.04-1.1
			c-0.13-2.91-0.38-5.74-0.76-8.56c-0.46-4.18-1.18-8.31-2.07-12.36c-7.85-36.49-30.5-67.49-61.37-86.39
			c-0.97-0.63-1.94-1.22-2.95-1.81c-0.34-0.21-0.68-0.42-1.05-0.63c-1.01-0.59-2.02-1.14-3.08-1.69
			c-18.9-10.12-40.45-15.86-63.36-15.86c-23.71,0-46.02,6.16-65.42,16.96c-1.35,0.76-2.7,1.52-4.05,2.36
			c-38,22.86-63.86,63.99-65.38,111.19c-0.04,1.48-0.08,2.95-0.08,4.43v0.34c0.13,48.34,25.81,90.82,64.29,114.52
			c0.38,0.25,0.8,0.51,1.18,0.72c0.93,0.59,1.86,1.14,2.83,1.65c0.42,0.3,0.89,0.55,1.35,0.76c19.36,10.8,41.63,16.92,65.3,16.92
			c15.61,0,30.58-2.66,44.54-7.59h0.04c5.91-2.02,11.6-4.51,17.13-7.38c0.04,0,0.04-0.04,0.08-0.04c0.46-0.25,0.97-0.46,1.39-0.72
			c0,0,0,0,0-0.04c0.13-0.04,0.25-0.08,0.34-0.17c0.34-0.17,0.67-0.34,1.01-0.55c0.63-0.34,1.27-0.67,1.9-1.05
			c0.29-0.13,0.59-0.34,0.93-0.51c0.04-0.04,0.08-0.04,0.17-0.13c0.34-0.17,0.72-0.38,1.1-0.63c0.63-0.34,1.26-0.76,1.9-1.14
			c0.17-0.08,0.3-0.17,0.46-0.3c0.04-0.04,0.13-0.08,0.17-0.13h0.04c0.04,0,0.08-0.04,0.08-0.04c5.27-3.29,10.25-6.92,14.97-10.84
			l0.04-0.04c22.69-18.98,39.1-45.22,45.56-75.13c0.89-4.05,1.56-8.1,2.07-12.27c0.59-4.77,0.89-9.66,0.97-14.6v-1.6
			C367.87,306.75,367.87,306.07,367.83,305.44z M301.69,418.66c-0.04,0.04-0.13,0.08-0.17,0.08c-0.04,0.04-0.08,0.08-0.13,0.08
			c-0.34,0.25-0.63,0.46-0.97,0.63c-0.34,0.21-0.68,0.42-1.01,0.59c-0.59,0.38-1.18,0.72-1.81,1.1c-0.38,0.21-0.8,0.42-1.22,0.67
			c0,0-0.04,0-0.08,0c-0.34,0.21-0.63,0.38-0.97,0.55c-0.67,0.38-1.31,0.72-1.98,1.1c-0.04,0-0.04,0-0.04,0
			c-0.17,0.08-0.34,0.17-0.46,0.25c-0.04,0-0.04,0.04-0.08,0.04c-17.93,9.24-38.26,14.47-59.77,14.47
			c-22.61,0-43.83-5.78-62.39-15.9h-0.04c-1.01-0.55-2.02-1.1-2.99-1.65c-0.42-0.25-0.8-0.46-1.18-0.72
			c-0.97-0.59-1.94-1.18-2.91-1.77c-36.82-23.2-61.33-64.16-61.33-110.77c0-0.67,0-1.35,0.04-2.02c0-1.56,0.04-3.12,0.13-4.68v-0.04
			c2.23-43.91,26.24-82.17,61.37-104.19c1.31-0.84,2.66-1.65,4.01-2.4c19.23-11.14,41.51-17.51,65.3-17.51
			c22.52,0,43.78,5.78,62.34,15.86c0.38,0.17,0.72,0.38,1.1,0.59c1.01,0.55,1.98,1.14,2.99,1.73c0.38,0.25,0.8,0.46,1.18,0.72
			c1.14,0.67,2.24,1.35,3.33,2.11c3.33,2.15,6.54,4.43,9.62,6.88c1.05,0.76,2.07,1.6,3.04,2.4c0.21,0.17,0.38,0.34,0.59,0.55
			c1.35,1.1,2.61,2.24,3.92,3.42c1.43,1.31,2.87,2.66,4.26,4.05c0.59,0.59,1.18,1.18,1.77,1.81c0.59,0.59,1.18,1.22,1.73,1.81
			c1.31,1.39,2.53,2.83,3.75,4.26c0.59,0.72,1.22,1.43,1.81,2.15c0.59,0.76,1.18,1.48,1.77,2.24c1.27,1.6,2.45,3.21,3.63,4.89
			c0.97,1.39,1.94,2.78,2.87,4.22c1.05,1.6,2.07,3.25,3.04,4.94c0.76,1.27,1.52,2.57,2.24,3.92c0.46,0.84,0.93,1.73,1.39,2.62
			c0.89,1.69,1.73,3.37,2.53,5.15c1.6,3.46,3.04,7.04,4.34,10.71c0.59,1.64,1.14,3.29,1.64,4.94c0.42,1.31,0.8,2.57,1.14,3.88
			c0.42,1.52,0.8,3.04,1.18,4.6c0.38,1.52,0.72,3.08,1.01,4.64c0.21,1.01,0.42,2.02,0.59,3.04c0.17,1.05,0.38,2.11,0.51,3.16
			c0.17,1.1,0.34,2.15,0.46,3.25v0.17c0.04,0.08,0.04,0.17,0.04,0.25c0.13,0.97,0.21,1.94,0.3,2.91c0.25,2.11,0.38,4.22,0.51,6.33
			c0,0.34,0.04,0.72,0.04,1.05v0.38c0.04,0.3,0.04,0.63,0,0.93c0.08,0.84,0.08,1.69,0.08,2.49c0.04,0.3,0.04,0.63,0.04,0.93v1.22
			c0,5.4-0.34,10.71-1.01,15.9C357.79,363.78,334.55,398.32,301.69,418.66z"/>
	</g>
</g>
</svg>
